#Comment line ignore any data following # character 
#Hierarchical Translation and Rotation (.htr) file 
[Header]	
#Header keywords are followed by a single value 
FileType HTR		#Single word string
DataType HTRS		#Translation followed by rotation and scale data
FileVersion 1		#integer
NumSegments 64		#integer
NumFrames 3		#integer
DataFrameRate 30		#integer, data frame rate in this file
EulerRotationOrder ZYX
CalibrationUnits mm
RotationUnits Degrees
GlobalAxisofGravity Y
BoneLengthAxis Y
ScaleFactor 1.00
[SegmentNames&Hierarchy]
#CHILD	PARENT
Pinger_Root GLOBAL
Pelvis Pinger_Root
L_Hip Pelvis
R_Hip Pelvis
Rear_Leg01 Pelvis
Spine1 Pelvis
L_Leg01 L_Hip
L_Leg02 L_Leg01
L_Leg03 L_Leg02
L_Foot L_Leg03
L_Toe1_01 L_Foot
L_Toe2_01 L_Foot
L_Toe3_01 L_Foot
planeAlignerLeft L_Foot
L_Toe1_02 L_Toe1_01
L_Toe1_03 L_Toe1_02
L_Toe2_02 L_Toe2_01
L_Toe2_03 L_Toe2_02
L_Toe3_02 L_Toe3_01
L_Toe3_03 L_Toe3_02
planeLockWeightLeft planeAlignerLeft
R_Leg01 R_Hip
R_Leg02 R_Leg01
R_Leg03 R_Leg02
R_Foot R_Leg03
planeAlignerRight R_Foot
R_Toe1_01 R_Foot
R_Toe2_01 R_Foot
R_Toe3_01 R_Foot
planeLockWeightRight planeAlignerRight
R_Toe1_02 R_Toe1_01
R_Toe1_03 R_Toe1_02
R_Toe2_02 R_Toe2_01
R_Toe2_03 R_Toe2_02
R_Toe3_02 R_Toe3_01
R_Toe3_03 R_Toe3_02
Rear_Leg02 Rear_Leg01
Rear_Leg03 Rear_Leg02
Rear_Leg04 Rear_Leg03
Rear_Foot Rear_Leg04
planeAlignerCenter Rear_Foot
Rear_Toe1_01 Rear_Foot
Rear_Toe2_01 Rear_Foot
Rear_Toe3_01 Rear_Foot
planeLockWeightCenter planeAlignerCenter
Rear_Toe1_02 Rear_Toe1_01
Rear_Toe1_03 Rear_Toe1_02
Rear_Toe2_02 Rear_Toe2_01
Rear_Toe2_03 Rear_Toe2_02
Rear_Toe3_02 Rear_Toe3_01
Rear_Toe3_03 Rear_Toe3_02
Back_Bone Spine1
Head Spine1
Motor_Bone Back_Bone
Ping_Mechanism Back_Bone
BN_LookIK Head
bottomMouth Head
L_Mouth01 Head
L_mouthFront Head
mouthGun Head
R_Mouth01 Head
R_mouthFront Head
TopMouth Head
weapon_bone Head
[BasePosition]
#SegmentName Tx, Ty, Tz, Rx, Ry, Rz, BoneLength
Pinger_Root 0.000000 0.000000 0.000000 -90.000000 0.000000 0.000000 10.000000 
Pelvis 0.000000 0.000000 0.000000 0.000000 0.000000 0.000000 10.000000 
L_Hip 0.000000 0.000000 0.000000 0.000000 0.000000 0.000000 10.000000 
R_Hip 0.000000 0.000000 0.000000 0.000000 0.000000 0.000000 10.000000 
Rear_Leg01 0.000000 0.000000 0.000000 0.000000 0.000000 0.000000 10.000000 
Spine1 0.000000 0.000000 0.000000 0.000000 0.000000 0.000000 10.000000 
L_Leg01 0.000000 0.000000 0.000000 0.000000 0.000000 0.000000 10.000000 
L_Leg02 0.000000 0.000000 0.000000 0.000000 0.000000 0.000000 10.000000 
L_Leg03 0.000000 0.000000 0.000000 0.000000 0.000000 0.000000 10.000000 
L_Foot 0.000000 0.000000 0.000000 0.000000 0.000000 0.000000 10.000000 
L_Toe1_01 0.000000 0.000000 0.000000 0.000000 0.000000 0.000000 10.000000 
L_Toe2_01 0.000000 0.000000 0.000000 0.000000 0.000000 0.000000 10.000000 
L_Toe3_01 0.000000 0.000000 0.000000 0.000000 0.000000 0.000000 10.000000 
planeAlignerLeft 0.000000 0.000000 0.000000 0.000000 0.000000 0.000000 10.000000 
L_Toe1_02 0.000000 0.000000 0.000000 0.000000 0.000000 0.000000 10.000000 
L_Toe1_03 0.000000 0.000000 0.000000 0.000000 0.000000 0.000000 10.000000 
L_Toe2_02 0.000000 0.000000 0.000000 0.000000 0.000000 0.000000 10.000000 
L_Toe2_03 0.000000 0.000000 0.000000 0.000000 0.000000 0.000000 10.000000 
L_Toe3_02 0.000000 0.000000 0.000000 0.000000 0.000000 0.000000 10.000000 
L_Toe3_03 0.000000 0.000000 0.000000 0.000000 0.000000 0.000000 10.000000 
planeLockWeightLeft 0.000000 0.000000 0.000000 0.000000 0.000000 0.000000 10.000000 
R_Leg01 0.000000 0.000000 0.000000 0.000000 0.000000 0.000000 10.000000 
R_Leg02 0.000000 0.000000 0.000000 0.000000 0.000000 0.000000 10.000000 
R_Leg03 0.000000 0.000000 0.000000 0.000000 0.000000 0.000000 10.000000 
R_Foot 0.000000 0.000000 0.000000 0.000000 0.000000 0.000000 10.000000 
planeAlignerRight 0.000000 0.000000 0.000000 0.000000 0.000000 0.000000 10.000000 
R_Toe1_01 0.000000 0.000000 0.000000 0.000000 0.000000 0.000000 10.000000 
R_Toe2_01 0.000000 0.000000 0.000000 0.000000 0.000000 0.000000 10.000000 
R_Toe3_01 0.000000 0.000000 0.000000 0.000000 0.000000 0.000000 10.000000 
planeLockWeightRight 0.000000 0.000000 0.000000 0.000000 0.000000 0.000000 10.000000 
R_Toe1_02 0.000000 0.000000 0.000000 0.000000 0.000000 0.000000 10.000000 
R_Toe1_03 0.000000 0.000000 0.000000 0.000000 0.000000 0.000000 10.000000 
R_Toe2_02 0.000000 0.000000 0.000000 0.000000 0.000000 0.000000 10.000000 
R_Toe2_03 0.000000 0.000000 0.000000 0.000000 0.000000 0.000000 10.000000 
R_Toe3_02 0.000000 0.000000 0.000000 0.000000 0.000000 0.000000 10.000000 
R_Toe3_03 0.000000 0.000000 0.000000 0.000000 0.000000 0.000000 10.000000 
Rear_Leg02 0.000000 0.000000 0.000000 0.000000 0.000000 0.000000 10.000000 
Rear_Leg03 0.000000 0.000000 0.000000 0.000000 0.000000 0.000000 10.000000 
Rear_Leg04 0.000000 0.000000 0.000000 0.000000 0.000000 0.000000 10.000000 
Rear_Foot 0.000000 0.000000 0.000000 0.000000 0.000000 0.000000 10.000000 
planeAlignerCenter 0.000000 0.000000 0.000000 0.000000 0.000000 0.000000 10.000000 
Rear_Toe1_01 0.000000 0.000000 0.000000 0.000000 0.000000 0.000000 10.000000 
Rear_Toe2_01 0.000000 0.000000 0.000000 0.000000 0.000000 0.000000 10.000000 
Rear_Toe3_01 0.000000 0.000000 0.000000 0.000000 0.000000 0.000000 10.000000 
planeLockWeightCenter 0.000000 0.000000 0.000000 0.000000 0.000000 0.000000 10.000000 
Rear_Toe1_02 0.000000 0.000000 0.000000 0.000000 0.000000 0.000000 10.000000 
Rear_Toe1_03 0.000000 0.000000 0.000000 0.000000 0.000000 0.000000 10.000000 
Rear_Toe2_02 0.000000 0.000000 0.000000 0.000000 0.000000 0.000000 10.000000 
Rear_Toe2_03 0.000000 0.000000 0.000000 0.000000 0.000000 0.000000 10.000000 
Rear_Toe3_02 0.000000 0.000000 0.000000 0.000000 0.000000 0.000000 10.000000 
Rear_Toe3_03 0.000000 0.000000 0.000000 0.000000 0.000000 0.000000 10.000000 
Back_Bone 0.000000 0.000000 0.000000 0.000000 0.000000 0.000000 10.000000 
Head 0.000000 0.000000 0.000000 0.000000 0.000000 0.000000 10.000000 
Motor_Bone 0.000000 0.000000 0.000000 0.000000 0.000000 0.000000 10.000000 
Ping_Mechanism 0.000000 0.000000 0.000000 0.000000 0.000000 0.000000 10.000000 
BN_LookIK 0.000000 0.000000 0.000000 0.000000 0.000000 0.000000 10.000000 
bottomMouth 0.000000 0.000000 0.000000 0.000000 0.000000 0.000000 10.000000 
L_Mouth01 0.000000 0.000000 0.000000 0.000000 0.000000 0.000000 10.000000 
L_mouthFront 0.000000 0.000000 0.000000 0.000000 0.000000 0.000000 10.000000 
mouthGun 0.000000 0.000000 0.000000 0.000000 0.000000 0.000000 10.000000 
R_Mouth01 0.000000 0.000000 0.000000 0.000000 0.000000 0.000000 10.000000 
R_mouthFront 0.000000 0.000000 0.000000 0.000000 0.000000 0.000000 10.000000 
TopMouth 0.000000 0.000000 0.000000 0.000000 0.000000 0.000000 10.000000 
weapon_bone 0.000000 0.000000 0.000000 0.000000 0.000000 0.000000 10.000000 
#Beginning of Data. Separated by tabs
#Fr	Tx	Ty	Tz	Rx	Ry	Rz	SF
[Pinger_Root]
33 0.000000 0.000000 0.000000 -0.000067 0.000037 58.221966 0.000000
34 0.000000 0.000000 0.000000 -0.000066 0.000039 60.895695 0.000000
35 0.000000 0.000000 0.000000 -0.000065 0.000040 63.568005 0.000000
[Pelvis]
33 -162.669556 177.522400 4414.615234 -150.042023 -81.113426 -177.338684 4421.176758
34 -146.574081 163.387863 4403.223145 -139.653595 -82.184822 171.177734 4408.690430
35 -118.678574 153.716003 4389.593262 -121.934860 -83.266060 150.775986 4393.886719
[L_Hip]
33 5.766392 125.831482 872.656799 160.158691 -45.484905 122.312202 881.701050
34 5.766392 125.831482 872.656799 160.158691 -45.484905 122.312202 881.701050
35 5.766392 125.831482 872.656799 160.158691 -45.484905 122.312202 881.701050
[R_Hip]
33 5.765438 125.836372 -872.654907 38.087841 49.812687 125.703735 881.699829
34 5.765438 125.836372 -872.654907 38.087841 49.812687 125.703735 881.699829
35 5.765438 125.836372 -872.654907 38.087841 49.812687 125.703735 881.699829
[Rear_Leg01]
33 -192.298416 -925.602966 -0.001907 174.095779 -7.631781 -155.339996 945.367432
34 -192.298416 -925.602966 -0.001907 176.427780 -7.196905 -157.646622 945.367432
35 -192.298416 -925.602966 -0.001907 177.341293 -4.973420 -156.733414 945.367432
[Spine1]
33 290.604584 5.007505 0.000477 -8.347730 10.875226 20.376175 290.647736
34 290.604584 5.007505 0.000477 -9.509233 9.730651 19.432032 290.647736
35 290.604584 5.007505 0.000477 -9.501404 7.342618 18.492559 290.647736
[L_Leg01]
33 761.932007 -0.002384 -0.069261 20.979158 -29.111851 6.175024 761.932068
34 761.932007 -0.002384 -0.069261 17.809877 -32.545628 8.435202 761.932068
35 761.932007 -0.002384 -0.069261 14.837093 -33.770084 8.748925 761.932068
[L_Leg02]
33 1441.140503 -0.000954 -0.000715 0.903150 -0.144066 -122.915306 1441.140503
34 1441.140503 -0.000954 -0.000715 0.524555 -0.084439 -122.932755 1441.140503
35 1441.140503 -0.000954 -0.000715 0.184631 0.002824 -121.764404 1441.140503
[L_Leg03]
33 1686.963989 -0.000715 -0.000954 0.002311 -0.000413 110.274078 1686.963989
34 1686.963989 -0.000715 -0.000954 0.012160 -0.005399 107.403740 1686.963989
35 1686.963989 -0.000715 -0.000954 0.019171 -0.006161 105.632454 1686.963989
[L_Foot]
33 3041.570068 -30.715107 11.297464 -17.132038 12.574060 44.738640 3041.746094
34 3041.570068 -30.715107 11.297464 -17.490362 12.577355 45.196911 3041.746094
35 3041.570068 -30.715107 11.297464 -17.326790 12.641442 45.439415 3041.746094
[L_Toe1_01]
33 -188.216690 -224.732346 -21.137953 69.798698 0.423504 -173.136139 293.899567
34 -188.216690 -224.732346 -21.137953 68.952751 0.684725 -173.157089 293.899567
35 -188.216690 -224.732346 -21.137953 68.952751 0.684727 -173.157089 293.899567
[L_Toe2_01]
33 200.746536 -219.926590 148.838394 -76.891968 -1.431285 -57.465729 332.896027
34 200.746536 -219.926590 148.838394 -76.475266 -0.519431 -57.610153 332.896027
35 200.746536 -219.926590 148.838394 -76.475250 -0.519429 -57.610146 332.896027
[L_Toe3_01]
33 188.832520 -219.859131 -191.078659 -86.938690 42.284508 -55.571281 347.140900
34 188.832520 -219.859131 -191.078659 -86.331184 43.217793 -55.058380 347.140900
35 188.832520 -219.859131 -191.078659 -86.331184 43.217793 -55.058380 347.140900
[planeAlignerLeft]
33 32.772827 -558.556030 -139.852707 -10.732915 -79.549179 -89.998138 576.730164
34 32.802124 -556.416199 -148.137939 -10.756063 -78.700600 -89.967354 576.732056
35 32.801025 -556.416260 -148.138275 -10.756040 -78.700539 -89.967339 576.732117
[L_Toe1_02]
33 413.761139 0.000477 0.000000 0.001384 -25.958799 0.001384 413.761139
34 413.761139 0.000477 0.000000 0.001384 -25.961048 0.001384 413.761139
35 413.761139 0.000477 0.000000 0.001384 -25.963310 0.001384 413.761139
[L_Toe1_03]
33 464.317322 0.000358 -0.000089 0.004012 55.981388 0.004012 464.317322
34 464.317322 0.000358 -0.000089 0.004012 55.981388 0.004012 464.317322
35 464.317322 0.000358 -0.000089 0.004012 55.981369 0.004012 464.317322
[L_Toe2_02]
33 342.235809 -0.000477 0.000238 0.001187 -72.612686 0.001187 342.235809
34 342.235809 -0.000477 0.000238 0.001187 -72.488976 0.001187 342.235809
35 342.235809 -0.000477 0.000238 0.001188 -72.365227 0.001188 342.235809
[L_Toe2_03]
33 420.210846 -0.000715 0.000000 0.019224 85.706184 0.020099 420.210846
34 420.210846 -0.000715 0.000000 0.028469 85.274612 0.028469 420.210846
35 420.210846 -0.000715 0.000000 0.028469 85.274651 0.028469 420.210846
[L_Toe3_02]
33 329.270111 0.000954 0.000000 0.001177 -81.566711 0.001177 329.270111
34 329.270111 0.000954 0.000000 0.001177 -81.555817 0.001177 329.270111
35 329.270111 0.000954 0.000000 0.001177 -81.544975 0.001177 329.270111
[L_Toe3_03]
33 439.137451 -0.001907 0.000954 -179.997650 73.983589 -179.994110 439.137451
34 439.137451 -0.001907 0.000954 -179.997604 74.132118 -179.994080 439.137451
35 439.137451 -0.001907 0.000954 -179.997559 74.280632 -179.994034 439.137451
[planeLockWeightLeft]
33 1000.000000 0.098159 0.076104 -0.011826 -0.004376 0.005620 1000.000000
34 1000.000000 0.098151 0.076106 -0.011826 -0.004376 0.005620 1000.000000
35 1000.000000 0.098143 0.076107 -0.011826 -0.004376 0.005620 1000.000000
[R_Leg01]
33 761.455627 -0.001907 -0.000358 134.785583 -1.280632 35.424721 761.455688
34 761.455627 -0.001907 -0.000358 134.617554 -5.800044 29.633049 761.455688
35 761.455627 -0.001907 -0.000358 135.368790 -10.696310 25.478992 761.455688
[R_Leg02]
33 1441.140625 0.000000 -0.000238 -3.005769 -0.738552 -142.576599 1441.140625
34 1441.140625 0.000000 -0.000238 -3.019578 -0.849231 -137.476990 1441.140625
35 1441.140625 0.000000 -0.000238 -2.155695 -0.412068 -128.193253 1441.140625
[R_Leg03]
33 1686.963989 0.000954 0.001431 0.091768 -0.049547 135.184219 1686.963989
34 1686.963989 0.000954 0.001431 0.099131 -0.058508 137.135422 1686.963989
35 1686.963989 0.000954 0.001431 0.081644 -0.047215 133.025208 1686.963989
[R_Foot]
33 3041.560059 -30.531288 -11.204481 8.180796 -19.603395 57.892178 3041.734131
34 3041.560059 -30.531288 -11.204481 8.983241 -16.113461 49.468311 3041.734131
35 3041.560059 -30.531288 -11.204481 2.968121 -7.027574 47.650146 3041.734131
[planeAlignerRight]
33 -58.003998 -595.364685 -293.449432 17.000916 -75.752274 -115.538483 666.285339
34 -52.551903 -600.053650 -285.200836 20.167969 -76.538414 -118.597153 666.457520
35 -29.865807 -698.490601 -306.934418 23.614180 -73.119102 -121.817139 763.537720
[R_Toe1_01]
33 -188.383347 -224.864899 21.052242 85.273132 20.209362 -151.846680 294.101532
34 -188.383347 -224.864899 21.052242 86.463997 19.845373 -151.404083 294.101532
35 -188.383347 -224.864899 21.052242 85.383324 20.951513 -155.635788 294.101532
[R_Toe2_01]
33 200.637817 -220.002121 -148.787384 -86.063728 3.548162 -80.148247 332.857574
34 200.637817 -220.002121 -148.787384 -85.846817 7.737047 -76.695015 332.857574
35 200.637817 -220.002121 -148.787384 -79.731361 12.658033 -68.470444 332.857574
[R_Toe3_01]
33 188.606735 -220.092957 191.126343 -63.102211 -6.874726 -105.568581 347.192566
34 188.606735 -220.092957 191.126343 -63.625145 -7.126739 -103.702805 347.192566
35 188.606735 -220.092957 191.126343 -56.860180 -9.027148 -95.684814 347.192566
[planeLockWeightRight]
33 156.249466 -0.000610 0.076370 -0.011823 -0.004379 -0.000027 156.249481
34 499.998108 -0.000305 0.076218 -0.011823 -0.004379 -0.000027 499.998108
35 843.747742 -0.000000 0.076065 -0.011823 -0.004379 -0.000027 843.747742
[R_Toe1_02]
33 413.762085 0.000477 -0.000119 0.001436 -19.581154 0.001436 413.762085
34 413.762085 0.000477 -0.000119 0.001437 -19.509212 0.001437 413.762085
35 413.762085 0.000477 -0.000119 0.001405 -23.314547 0.001405 413.762085
[R_Toe1_03]
33 464.317810 0.000000 0.001088 -179.971603 87.815018 -179.968109 464.317810
34 464.317810 0.000000 0.001088 -179.971878 87.794159 -179.968384 464.317810
35 464.317810 0.000000 0.001088 0.010386 77.023239 0.010386 464.317810
[R_Toe2_02]
33 342.234741 -0.000954 0.000238 -0.002335 -78.251183 -0.002335 342.234741
34 342.234741 -0.000954 0.000238 -0.002334 -78.729301 -0.002334 342.234741
35 342.234741 -0.000954 0.000238 0.001189 -71.260078 0.001189 342.234741
[R_Toe2_03]
33 420.210846 0.000715 -0.000268 -179.994278 73.254227 -179.997818 420.210846
34 420.210846 0.000715 -0.000268 -179.994659 71.489464 -179.998199 420.210846
35 420.210846 0.000715 -0.000268 0.018237 82.620445 0.018237 420.210846
[R_Toe3_02]
33 329.270355 -0.000477 -0.000954 0.001179 -79.242012 0.001179 329.270355
34 329.270355 -0.000477 -0.000954 0.001177 -81.357864 0.001177 329.270355
35 329.270355 -0.000477 -0.000954 0.001184 -74.661629 0.001184 329.270355
[R_Toe3_03]
33 439.137939 0.000238 0.001431 -179.992188 83.108467 -179.988678 439.137939
34 439.137939 0.000238 0.001431 -179.997406 74.815193 -179.993881 439.137939
35 439.137939 0.000238 0.001431 -0.012087 83.625145 -0.008585 439.137939
[Rear_Leg02]
33 1162.777710 -0.029802 0.005960 3.045645 -4.257533 -133.214264 1162.777710
34 1162.777710 -0.029802 0.005960 3.423154 -4.509538 -137.000732 1162.777710
35 1162.777710 -0.029802 0.005960 2.731174 -3.437753 -135.390411 1162.777710
[Rear_Leg03]
33 607.192505 -0.013351 -0.073195 0.010295 -0.005494 72.530312 607.192505
34 607.192505 -0.013351 -0.073195 0.010276 -0.005530 72.930054 607.192505
35 607.192505 -0.013351 -0.073195 0.010256 -0.005566 73.329796 607.192505
[Rear_Leg04]
33 995.874512 -0.020504 -0.011921 -0.041628 -0.015366 76.840019 995.874573
34 995.874512 -0.020504 -0.011921 -0.043320 -0.016915 77.870041 995.874573
35 995.874512 -0.020504 -0.011921 -0.045039 -0.018434 78.900063 995.874573
[Rear_Foot]
33 3096.176270 -0.067472 -0.041425 -159.890167 75.892769 19.823235 3096.176270
34 3096.176270 -0.067472 -0.041425 -155.582596 77.407570 24.715271 3096.176270
35 3096.176270 -0.067472 -0.041425 -155.355286 80.227989 24.067936 3096.176270
[planeAlignerCenter]
33 122.215614 -10.738200 -741.844055 12.241266 9.348399 179.999527 751.920593
34 95.917702 -16.081217 -771.026245 12.239399 7.168197 -179.999893 777.135986
35 70.039230 -16.081388 -773.367981 12.237517 4.988778 -179.999268 776.699524
[Rear_Toe1_01]
33 0.653352 83.966492 -371.173737 -13.933966 39.422070 78.921631 380.553192
34 0.653352 83.966492 -371.173737 -10.806095 41.434616 81.290710 380.553192
35 0.653352 83.966492 -371.173737 -7.798286 41.677929 83.757629 380.553192
[Rear_Toe2_01]
33 178.200760 -294.826019 -362.060547 2.310734 26.957901 -58.566525 499.765686
34 178.200760 -294.826019 -362.060547 0.415656 29.763393 -60.127903 499.765686
35 178.200760 -294.826019 -362.060547 -1.559301 31.096270 -61.693035 499.765686
[Rear_Toe3_01]
33 -153.359680 -308.780914 -362.060852 14.884149 36.825733 -103.191071 499.952881
34 -153.359680 -308.780914 -362.060852 12.036798 37.054302 -105.335602 499.952881
35 -153.359680 -308.780914 -362.060852 9.548511 36.179718 -107.406387 499.952881
[planeLockWeightCenter]
33 1000.000122 0.000305 0.076440 -0.011814 -0.004373 -0.000015 1000.000122
34 1000.000122 0.000305 0.076438 -0.011814 -0.004373 -0.000015 1000.000122
35 1000.000122 0.000305 0.076436 -0.011814 -0.004373 -0.000015 1000.000122
[Rear_Toe1_02]
33 379.707825 0.194073 0.000477 -0.000274 -32.116928 0.006952 379.707855
34 379.707825 0.194073 0.000477 -0.000233 -31.553385 0.006929 379.707855
35 379.707825 0.194073 0.000477 -0.000233 -31.558746 0.006929 379.707855
[Rear_Toe1_03]
33 500.129700 0.165701 0.000119 0.000098 53.791260 0.007456 500.129761
34 500.129700 0.165701 0.000119 -0.000170 51.243378 0.007244 500.129761
35 500.129700 0.165701 0.000119 -0.000148 51.455750 0.007260 500.129761
[Rear_Toe2_02]
33 340.494507 0.000238 -0.000954 0.001196 -67.947289 0.001196 340.494507
34 340.494507 0.000238 -0.000954 0.001197 -67.524368 0.001197 340.494507
35 340.494507 0.000238 -0.000954 0.001195 -68.130455 0.001195 340.494507
[Rear_Toe2_03]
33 433.103577 0.000000 0.000238 0.005876 66.958206 0.005876 433.103546
34 433.103577 0.000000 0.000238 0.005723 66.330818 0.005723 433.103546
35 433.103577 0.000000 0.000238 0.005975 67.344086 0.005975 433.103546
[Rear_Toe3_02]
33 340.494141 -0.000358 -0.000477 0.001190 -70.737610 0.001190 340.494171
34 340.494141 -0.000358 -0.000477 0.001194 -68.916191 0.001194 340.494171
35 340.494141 -0.000358 -0.000477 0.002721 -68.587929 -0.001044 340.494171
[Rear_Toe3_03]
33 433.103577 0.001431 -0.000238 0.007173 71.166794 0.007173 433.103546
34 433.103577 0.001431 -0.000238 0.006266 68.411118 0.006266 433.103546
35 433.103577 0.001431 -0.000238 0.004280 67.851212 0.003389 433.103546
[Back_Bone]
33 1312.175781 -701.934692 0.000954 0.000023 -0.000007 -85.606667 1488.125488
34 1312.175781 -701.934692 0.000954 0.000023 -0.000007 -85.606667 1488.125488
35 1312.175781 -701.934692 0.000954 0.000023 -0.000007 -85.606667 1488.125488
[Head]
33 1406.159424 809.709290 0.001431 0.000625 -1.475623 7.768025 1622.625488
34 1406.159424 809.709290 0.001431 0.000625 -1.475624 7.768028 1622.625488
35 1406.159424 809.709290 0.001431 0.000625 -1.475624 7.768028 1622.625488
[Motor_Bone]
33 1158.364380 -417.834747 0.000477 -0.089140 -3.612926 -105.776794 1231.419434
34 1158.364380 -417.834747 0.000477 -0.095817 -4.925515 -105.912216 1231.419434
35 1158.364380 -417.834747 0.000477 -0.094343 -4.066243 -105.851616 1231.419434
[Ping_Mechanism]
33 1228.845825 -438.632477 -42.655743 0.000103 -0.000053 82.120995 1305.480713
34 1232.597900 -440.931671 -34.961872 0.000103 -0.000053 82.120995 1309.557495
35 1238.107178 -443.679932 -23.422241 0.000103 -0.000053 82.120995 1315.412476
[BN_LookIK]
33 193.241119 1380.371704 -0.002861 0.000000 89.965736 -31.038179 1393.832153
34 193.241119 1380.371704 -0.002861 0.000000 89.965736 -31.038179 1393.832153
35 193.241119 1380.371704 -0.002861 0.000000 89.965736 -31.038179 1393.832153
[bottomMouth]
33 -435.092926 615.759399 -0.000954 -0.000022 0.000016 73.527184 753.966492
34 -435.092926 615.759399 -0.000954 -0.000022 0.000016 73.527184 753.966492
35 -435.092926 615.759399 -0.000954 -0.000022 0.000016 73.527184 753.966492
[L_Mouth01]
33 554.440979 7.658243 838.222046 150.204178 23.759130 109.605339 1005.027161
34 554.440979 7.658243 838.222046 150.204178 23.759130 109.605339 1005.027161
35 554.440979 7.658243 838.222046 150.204178 23.759130 109.605339 1005.027161
[L_mouthFront]
33 551.629089 934.514771 339.150421 0.000081 2.804060 79.119301 1136.941284
34 551.629089 934.514771 339.150421 0.000081 2.804060 79.119301 1136.941284
35 551.629089 934.514771 339.150421 0.000081 2.804060 79.119301 1136.941284
[mouthGun]
33 55.332661 1627.420898 0.000000 0.000023 0.000009 -11.038128 1628.361328
34 55.332661 1627.420898 0.000000 0.000023 0.000009 -11.038128 1628.361328
35 55.332661 1627.420898 0.000000 0.000023 0.000009 -11.038128 1628.361328
[R_Mouth01]
33 554.442383 7.659197 -838.223938 29.795891 -23.759109 109.605331 1005.029541
34 554.442383 7.659197 -838.223938 29.795891 -23.759109 109.605331 1005.029541
35 554.442383 7.659197 -838.223938 29.795891 -23.759109 109.605331 1005.029541
[R_mouthFront]
33 551.629089 934.514282 -339.151367 0.000029 -2.803930 79.119133 1136.941162
34 551.629089 934.514282 -339.151367 0.000029 -2.803930 79.119133 1136.941162
35 551.629089 934.514282 -339.151367 0.000029 -2.803930 79.119133 1136.941162
[TopMouth]
33 461.269867 -56.106091 -0.008583 -0.000059 -0.000268 92.025169 464.669525
34 461.269867 -56.106091 -0.008583 -0.000059 -0.000268 92.025169 464.669525
35 461.269867 -56.106091 -0.008583 -0.000059 -0.000268 92.025169 464.669525
[weapon_bone]
33 -987.239868 1448.372803 0.001431 0.000000 89.965736 -31.038221 1752.833740
34 -987.239868 1448.372803 0.001431 0.000000 89.965736 -31.038221 1752.833740
35 -987.239868 1448.372803 0.001431 0.000000 89.965736 -31.038221 1752.833740
